Scott Pilgrim vs the World


General                    
Filename                         :Scott Pilgrim vs The World.2010.DvdRip.Xvid -                                  Bamjuice
Format                           : AVI
Format/Info                      : Audio Video Interleave
File size                        : 701 MiB
Duration                         : 1h 51mn
Overall bit rate                 : 877 Kbps
Writing application              : Noir's Hyper HD Xvid
Writing library                  : VirtualDub build 32839/release
Original source form             : Noir's Shit
Copyright                        : By Noir

Video
ID                               : 0
Format                           : MPEG-4 Visual
Format profile                   : Advanced Simple@L5
Format settings, BVOP            : Yes
Format settings, QPel            : No
Format settings, GMC             : No warppoints
Format settings, Matrix          : Default (H.263)
Muxing mode                      : Packed bitstream
Codec ID                         : XVID
Codec ID/Hint                    : XviD
Duration                         : 1h 51mn
Bit rate                         : 753 Kbps
Width                            : 608 pixels
Height                           : 336 pixels
Display aspect ratio             : 16:9
Frame rate                       : 23.976 fps
Color space                      : YUV
Chroma subsampling               : 4:2:0
Bit depth                        : 8 bits
Scan type                        : Progressive
Bits/(Pixel*Frame)               : 0.154
Stream size                      : 601 MiB (86%)
Writing library                  : XviD 57

Audio
ID                               : 1
Format                           : MPEG Audio
Format version                   : Version 1
Format profile                   : Layer 3
Mode                             : Joint stereo
Mode extension                   : MS Stereo
Codec ID                         : 55
Codec ID/Hint                    : MP3
Duration                         : 1h 51mn
Bit rate mode                    : Variable
Bit rate                         : 112 Kbps
Channel(s)                       : 2 channels
Sampling rate                    : 44.1 KHz
Stream size                      : 89.3 MiB (13%)
Alignment                        : Aligned on interleaves
Interleave, duration             : 26 ms (0.63 video frame)
Interleave, preload duration     : 488 ms
Writing library                  : LAME3.98.4

Plot/Storyline:
Scott Pilgrim must defeat his new girlfriend's seven evil exes in order to win her heart

Screenshots:
 
http://bayimg.com/eaADfaADD
 
http://bayimg.com/eaADlaADd
 
http://bayimg.com/eAadmAaDD

Happy Pirateing SEED ONCE YOU LEECH FFS!